<?xml-stylesheet type="text/css" href="zirksvga.css"?>
<!DOCTYPE svg PUBLIC "-//W3C//DTD SVG 1.1//EN" "http://www.w3.org/Graphics/SVG/1.1/DTD/svg11.dtd">
<!-- PDFTron PDFNet Generated! Version: 7.1.0.74195 -->
<svg id="svgRoot" version="1.1" baseProfile="Full" width="114px" height="114px" viewBox="0 0 114 114" xmlns="http://www.w3.org/2000/svg" xmlns:xlink="http://www.w3.org/1999/xlink" xmlns:cs="http://www.pdftron.com/pdf2svg" xml:space="preserve">
<defs>
</defs>
<style type="text/css">
<![CDATA[
.ps00 { stroke:#000000;fill:none; }
.ps02 { stroke:#98B3FC;fill:none; }
.ps01 { stroke:none;fill:none; }
.ps11 { stroke-width:0.05; }
.ps10 { stroke-width:0.3985; }
.ps20 { 
letter-spacing:0px;word-spacing:0;font-family:fnt0;font-style:normal;font-weight:normal;font-size:12.947px; }
]]>
</style>
<clipPath id="clp1" clip-rule="nonzero">
<rect x="0" y="0" width="114" height="114"/>
</clipPath>
<g clip-path="url(#clp1)" transform="matrix(1 0 0 -1 -0 114)">
<g id="q1" class="">
<g id="q2" class="">
<clipPath id="clp2" clip-rule="nonzero">
<rect x="0" y="0" width="114" height="114"/>
</clipPath>
<g id="frm3" clip-path="url(#clp2)">
<g id="q4" class="">
<clipPath id="clp3" clip-rule="nonzero">
<rect x="0" y="0" width="113.8" height="113.8"/>
</clipPath>
<g id="frm5" clip-path="url(#clp3)">
<g id="xfrm6" transform="matrix(1 0 0 1 56.892 56.892)">
<g id="q7" class="">
<g id="q8" class="ps10">
<path d="M0 0M56.694 0 C56.694 31.311 31.311 56.694 0 56.694 C-31.311 56.694 -56.694 31.311 -56.694 0 C-56.694 -31.311 -31.311 -56.694 0 -56.694 C31.311 -56.694 56.694 -31.311 56.694 0 ZM0 0" class="ps00"/>
</g>
<path class="ps01 ps10"/>
</g>
</g>
</g>
</g>
</g>
</g>
</g>
<g id="q9" class="">
<g id="xfrm10" transform="matrix(114 0 0 114 0 0)">
<clipPath id="clp4" clip-rule="nonzero">
<rect x="0" y="0" width="100" height="100"/>
</clipPath>
<g id="frm11" transform="matrix(0.01 0 0 0.01 0 0)" clip-path="url(#clp4)">
<text transform="matrix(1 0 0 -1 0 43.5267)"><tspan x="0,9.3475,18.695,28.043,31.642,38.84,46.038,49.638,53.237,57.548,64.746,71.945,75.544,82.017,89.216" y="-0" class="ps02 ps11 ps20">www.pdftron.com</tspan>
</text>
</g>
</g>
</g>
</g>
</svg>
